<mxfile host="app.diagrams.net" agent="Mozilla/5.0 (Macintosh; Intel Mac OS X 10_15_7) AppleWebKit/537.36 (KHTML, like Gecko) Chrome/130.0.0.0 Safari/537.36" version="24.8.4">
  <diagram name="Page-1" id="fh9s4Bn4TSQBKXXmfP1D">
    <mxGraphModel dx="1194" dy="789" grid="1" gridSize="10" guides="1" tooltips="1" connect="1" arrows="1" fold="1" page="1" pageScale="1" pageWidth="850" pageHeight="1100" math="0" shadow="0">
      <root>
        <mxCell id="0" />
        <mxCell id="1" parent="0" />
        <mxCell id="sXBxF_azK9009ogoda6k-1" value="Input / Guess&lt;div&gt;Word (Answer)&lt;/div&gt;&lt;div&gt;Mistakes&lt;/div&gt;&lt;div&gt;Correct Answers&lt;/div&gt;&lt;div&gt;Guesses&lt;/div&gt;&lt;div&gt;Word List&lt;/div&gt;" style="text;html=1;align=center;verticalAlign=middle;whiteSpace=wrap;rounded=0;" vertex="1" parent="1">
          <mxGeometry x="61" y="120" width="139" height="120" as="geometry" />
        </mxCell>
        <mxCell id="sXBxF_azK9009ogoda6k-3" style="edgeStyle=orthogonalEdgeStyle;rounded=0;orthogonalLoop=1;jettySize=auto;html=1;exitX=0.5;exitY=1;exitDx=0;exitDy=0;" edge="1" parent="1" source="sXBxF_azK9009ogoda6k-2" target="sXBxF_azK9009ogoda6k-4">
          <mxGeometry relative="1" as="geometry">
            <mxPoint x="340" y="240" as="targetPoint" />
          </mxGeometry>
        </mxCell>
        <mxCell id="sXBxF_azK9009ogoda6k-2" value="ゲーム開始&lt;div&gt;（初期化）&lt;/div&gt;" style="rounded=0;whiteSpace=wrap;html=1;" vertex="1" parent="1">
          <mxGeometry x="280" y="120" width="160" height="80" as="geometry" />
        </mxCell>
        <mxCell id="sXBxF_azK9009ogoda6k-7" style="edgeStyle=orthogonalEdgeStyle;rounded=0;orthogonalLoop=1;jettySize=auto;html=1;exitX=0.5;exitY=1;exitDx=0;exitDy=0;entryX=0.5;entryY=0;entryDx=0;entryDy=0;" edge="1" parent="1" source="sXBxF_azK9009ogoda6k-4" target="sXBxF_azK9009ogoda6k-6">
          <mxGeometry relative="1" as="geometry" />
        </mxCell>
        <mxCell id="sXBxF_azK9009ogoda6k-4" value="リストから答えを選ぶ" style="rounded=0;whiteSpace=wrap;html=1;" vertex="1" parent="1">
          <mxGeometry x="280" y="240" width="160" height="80" as="geometry" />
        </mxCell>
        <mxCell id="sXBxF_azK9009ogoda6k-9" style="edgeStyle=orthogonalEdgeStyle;rounded=0;orthogonalLoop=1;jettySize=auto;html=1;exitX=0.5;exitY=1;exitDx=0;exitDy=0;entryX=0.5;entryY=0;entryDx=0;entryDy=0;" edge="1" parent="1" source="sXBxF_azK9009ogoda6k-6" target="sXBxF_azK9009ogoda6k-8">
          <mxGeometry relative="1" as="geometry" />
        </mxCell>
        <mxCell id="sXBxF_azK9009ogoda6k-6" value="インプットを取得する" style="rounded=0;whiteSpace=wrap;html=1;" vertex="1" parent="1">
          <mxGeometry x="280" y="360" width="160" height="80" as="geometry" />
        </mxCell>
        <mxCell id="sXBxF_azK9009ogoda6k-12" style="edgeStyle=orthogonalEdgeStyle;rounded=0;orthogonalLoop=1;jettySize=auto;html=1;exitX=1;exitY=0.5;exitDx=0;exitDy=0;entryX=0;entryY=0.5;entryDx=0;entryDy=0;" edge="1" parent="1" source="sXBxF_azK9009ogoda6k-8" target="sXBxF_azK9009ogoda6k-11">
          <mxGeometry relative="1" as="geometry" />
        </mxCell>
        <mxCell id="sXBxF_azK9009ogoda6k-14" style="edgeStyle=orthogonalEdgeStyle;rounded=0;orthogonalLoop=1;jettySize=auto;html=1;exitX=0.5;exitY=1;exitDx=0;exitDy=0;entryX=0.5;entryY=0;entryDx=0;entryDy=0;" edge="1" parent="1" source="sXBxF_azK9009ogoda6k-8" target="sXBxF_azK9009ogoda6k-10">
          <mxGeometry relative="1" as="geometry" />
        </mxCell>
        <mxCell id="sXBxF_azK9009ogoda6k-8" value="インプットバリデーション" style="rounded=0;whiteSpace=wrap;html=1;" vertex="1" parent="1">
          <mxGeometry x="280" y="480" width="160" height="80" as="geometry" />
        </mxCell>
        <mxCell id="sXBxF_azK9009ogoda6k-15" style="edgeStyle=orthogonalEdgeStyle;rounded=0;orthogonalLoop=1;jettySize=auto;html=1;exitX=0.5;exitY=1;exitDx=0;exitDy=0;" edge="1" parent="1" source="sXBxF_azK9009ogoda6k-10">
          <mxGeometry relative="1" as="geometry">
            <mxPoint x="360" y="680" as="targetPoint" />
          </mxGeometry>
        </mxCell>
        <mxCell id="sXBxF_azK9009ogoda6k-10" value="バリッド" style="rounded=0;whiteSpace=wrap;html=1;" vertex="1" parent="1">
          <mxGeometry x="320" y="600" width="80" height="40" as="geometry" />
        </mxCell>
        <mxCell id="sXBxF_azK9009ogoda6k-13" style="edgeStyle=orthogonalEdgeStyle;rounded=0;orthogonalLoop=1;jettySize=auto;html=1;exitX=0.5;exitY=0;exitDx=0;exitDy=0;entryX=1;entryY=0.5;entryDx=0;entryDy=0;" edge="1" parent="1" source="sXBxF_azK9009ogoda6k-11" target="sXBxF_azK9009ogoda6k-6">
          <mxGeometry relative="1" as="geometry" />
        </mxCell>
        <mxCell id="sXBxF_azK9009ogoda6k-11" value="バリッドじゃない" style="rounded=0;whiteSpace=wrap;html=1;" vertex="1" parent="1">
          <mxGeometry x="480" y="500" width="80" height="40" as="geometry" />
        </mxCell>
        <mxCell id="sXBxF_azK9009ogoda6k-19" style="edgeStyle=orthogonalEdgeStyle;rounded=0;orthogonalLoop=1;jettySize=auto;html=1;exitX=0.5;exitY=1;exitDx=0;exitDy=0;entryX=1;entryY=0.5;entryDx=0;entryDy=0;" edge="1" parent="1" source="sXBxF_azK9009ogoda6k-16" target="sXBxF_azK9009ogoda6k-17">
          <mxGeometry relative="1" as="geometry" />
        </mxCell>
        <mxCell id="sXBxF_azK9009ogoda6k-20" style="edgeStyle=orthogonalEdgeStyle;rounded=0;orthogonalLoop=1;jettySize=auto;html=1;exitX=0.5;exitY=1;exitDx=0;exitDy=0;entryX=0;entryY=0.5;entryDx=0;entryDy=0;" edge="1" parent="1" source="sXBxF_azK9009ogoda6k-16" target="sXBxF_azK9009ogoda6k-18">
          <mxGeometry relative="1" as="geometry" />
        </mxCell>
        <mxCell id="sXBxF_azK9009ogoda6k-16" value="インプットが答えに入っているか確認する" style="rounded=0;whiteSpace=wrap;html=1;" vertex="1" parent="1">
          <mxGeometry x="280" y="680" width="160" height="80" as="geometry" />
        </mxCell>
        <mxCell id="sXBxF_azK9009ogoda6k-25" style="edgeStyle=orthogonalEdgeStyle;rounded=0;orthogonalLoop=1;jettySize=auto;html=1;exitX=0;exitY=0.5;exitDx=0;exitDy=0;entryX=1;entryY=0.5;entryDx=0;entryDy=0;" edge="1" parent="1" source="sXBxF_azK9009ogoda6k-17" target="sXBxF_azK9009ogoda6k-24">
          <mxGeometry relative="1" as="geometry" />
        </mxCell>
        <mxCell id="sXBxF_azK9009ogoda6k-17" value="正解" style="rounded=0;whiteSpace=wrap;html=1;" vertex="1" parent="1">
          <mxGeometry x="240" y="800" width="80" height="40" as="geometry" />
        </mxCell>
        <mxCell id="sXBxF_azK9009ogoda6k-21" style="edgeStyle=orthogonalEdgeStyle;rounded=0;orthogonalLoop=1;jettySize=auto;html=1;exitX=1;exitY=0.5;exitDx=0;exitDy=0;" edge="1" parent="1" source="sXBxF_azK9009ogoda6k-18">
          <mxGeometry relative="1" as="geometry">
            <mxPoint x="520" y="820" as="targetPoint" />
          </mxGeometry>
        </mxCell>
        <mxCell id="sXBxF_azK9009ogoda6k-18" value="不正解" style="rounded=0;whiteSpace=wrap;html=1;" vertex="1" parent="1">
          <mxGeometry x="400" y="800" width="80" height="40" as="geometry" />
        </mxCell>
        <mxCell id="sXBxF_azK9009ogoda6k-29" style="edgeStyle=orthogonalEdgeStyle;rounded=0;orthogonalLoop=1;jettySize=auto;html=1;exitX=0.5;exitY=0;exitDx=0;exitDy=0;entryX=0.5;entryY=1;entryDx=0;entryDy=0;" edge="1" parent="1" source="sXBxF_azK9009ogoda6k-22" target="sXBxF_azK9009ogoda6k-28">
          <mxGeometry relative="1" as="geometry" />
        </mxCell>
        <mxCell id="sXBxF_azK9009ogoda6k-22" value="インプットできる回数を減らす" style="rounded=0;whiteSpace=wrap;html=1;" vertex="1" parent="1">
          <mxGeometry x="520" y="780" width="120" height="80" as="geometry" />
        </mxCell>
        <mxCell id="sXBxF_azK9009ogoda6k-42" style="edgeStyle=orthogonalEdgeStyle;rounded=0;orthogonalLoop=1;jettySize=auto;html=1;exitX=0.5;exitY=0;exitDx=0;exitDy=0;entryX=0.5;entryY=1;entryDx=0;entryDy=0;" edge="1" parent="1" source="sXBxF_azK9009ogoda6k-24" target="sXBxF_azK9009ogoda6k-38">
          <mxGeometry relative="1" as="geometry" />
        </mxCell>
        <mxCell id="sXBxF_azK9009ogoda6k-24" value="答えの文字を表示する" style="rounded=0;whiteSpace=wrap;html=1;" vertex="1" parent="1">
          <mxGeometry x="40" y="780" width="160" height="80" as="geometry" />
        </mxCell>
        <mxCell id="sXBxF_azK9009ogoda6k-33" style="edgeStyle=orthogonalEdgeStyle;rounded=0;orthogonalLoop=1;jettySize=auto;html=1;exitX=0.5;exitY=0;exitDx=0;exitDy=0;entryX=0.5;entryY=1;entryDx=0;entryDy=0;" edge="1" parent="1" source="sXBxF_azK9009ogoda6k-28" target="sXBxF_azK9009ogoda6k-32">
          <mxGeometry relative="1" as="geometry" />
        </mxCell>
        <mxCell id="sXBxF_azK9009ogoda6k-34" style="edgeStyle=orthogonalEdgeStyle;rounded=0;orthogonalLoop=1;jettySize=auto;html=1;exitX=1;exitY=0.5;exitDx=0;exitDy=0;entryX=0;entryY=0.5;entryDx=0;entryDy=0;" edge="1" parent="1" source="sXBxF_azK9009ogoda6k-28" target="sXBxF_azK9009ogoda6k-31">
          <mxGeometry relative="1" as="geometry" />
        </mxCell>
        <mxCell id="sXBxF_azK9009ogoda6k-28" value="ゲームオーバーのバリデーション" style="rounded=0;whiteSpace=wrap;html=1;" vertex="1" parent="1">
          <mxGeometry x="520" y="640" width="120" height="80" as="geometry" />
        </mxCell>
        <mxCell id="sXBxF_azK9009ogoda6k-37" style="edgeStyle=orthogonalEdgeStyle;rounded=0;orthogonalLoop=1;jettySize=auto;html=1;exitX=1;exitY=0.5;exitDx=0;exitDy=0;entryX=0.5;entryY=1;entryDx=0;entryDy=0;" edge="1" parent="1" source="sXBxF_azK9009ogoda6k-31" target="sXBxF_azK9009ogoda6k-36">
          <mxGeometry relative="1" as="geometry" />
        </mxCell>
        <mxCell id="sXBxF_azK9009ogoda6k-31" value="回数０" style="rounded=0;whiteSpace=wrap;html=1;" vertex="1" parent="1">
          <mxGeometry x="680" y="660" width="80" height="40" as="geometry" />
        </mxCell>
        <mxCell id="sXBxF_azK9009ogoda6k-35" style="edgeStyle=orthogonalEdgeStyle;rounded=0;orthogonalLoop=1;jettySize=auto;html=1;exitX=0.5;exitY=0;exitDx=0;exitDy=0;entryX=1;entryY=0.5;entryDx=0;entryDy=0;" edge="1" parent="1" source="sXBxF_azK9009ogoda6k-32" target="sXBxF_azK9009ogoda6k-6">
          <mxGeometry relative="1" as="geometry" />
        </mxCell>
        <mxCell id="sXBxF_azK9009ogoda6k-32" value="回数1以上" style="rounded=0;whiteSpace=wrap;html=1;" vertex="1" parent="1">
          <mxGeometry x="600" y="560" width="80" height="40" as="geometry" />
        </mxCell>
        <mxCell id="sXBxF_azK9009ogoda6k-36" value="ゲームオーバーを表示する" style="rounded=0;whiteSpace=wrap;html=1;" vertex="1" parent="1">
          <mxGeometry x="720" y="520" width="120" height="80" as="geometry" />
        </mxCell>
        <mxCell id="sXBxF_azK9009ogoda6k-41" style="edgeStyle=orthogonalEdgeStyle;rounded=0;orthogonalLoop=1;jettySize=auto;html=1;exitX=0.5;exitY=0;exitDx=0;exitDy=0;entryX=0.5;entryY=1;entryDx=0;entryDy=0;" edge="1" parent="1" source="sXBxF_azK9009ogoda6k-38" target="sXBxF_azK9009ogoda6k-40">
          <mxGeometry relative="1" as="geometry" />
        </mxCell>
        <mxCell id="sXBxF_azK9009ogoda6k-43" style="edgeStyle=orthogonalEdgeStyle;rounded=0;orthogonalLoop=1;jettySize=auto;html=1;exitX=0.5;exitY=0;exitDx=0;exitDy=0;entryX=0.5;entryY=1;entryDx=0;entryDy=0;" edge="1" parent="1" source="sXBxF_azK9009ogoda6k-38" target="sXBxF_azK9009ogoda6k-39">
          <mxGeometry relative="1" as="geometry" />
        </mxCell>
        <mxCell id="sXBxF_azK9009ogoda6k-38" value="勝利のバリデーション" style="rounded=0;whiteSpace=wrap;html=1;" vertex="1" parent="1">
          <mxGeometry x="40" y="640" width="160" height="80" as="geometry" />
        </mxCell>
        <mxCell id="sXBxF_azK9009ogoda6k-46" style="edgeStyle=orthogonalEdgeStyle;rounded=0;orthogonalLoop=1;jettySize=auto;html=1;exitX=0.5;exitY=0;exitDx=0;exitDy=0;entryX=0.5;entryY=1;entryDx=0;entryDy=0;" edge="1" parent="1" source="sXBxF_azK9009ogoda6k-39" target="sXBxF_azK9009ogoda6k-45">
          <mxGeometry relative="1" as="geometry" />
        </mxCell>
        <mxCell id="sXBxF_azK9009ogoda6k-39" value="全ての文字を当たった" style="rounded=0;whiteSpace=wrap;html=1;" vertex="1" parent="1">
          <mxGeometry x="40" y="560" width="80" height="40" as="geometry" />
        </mxCell>
        <mxCell id="sXBxF_azK9009ogoda6k-44" style="edgeStyle=orthogonalEdgeStyle;rounded=0;orthogonalLoop=1;jettySize=auto;html=1;exitX=0.5;exitY=0;exitDx=0;exitDy=0;entryX=0;entryY=0.5;entryDx=0;entryDy=0;" edge="1" parent="1" source="sXBxF_azK9009ogoda6k-40" target="sXBxF_azK9009ogoda6k-6">
          <mxGeometry relative="1" as="geometry" />
        </mxCell>
        <mxCell id="sXBxF_azK9009ogoda6k-40" value="全ての文字を当たってない" style="rounded=0;whiteSpace=wrap;html=1;" vertex="1" parent="1">
          <mxGeometry x="160" y="560" width="80" height="40" as="geometry" />
        </mxCell>
        <mxCell id="sXBxF_azK9009ogoda6k-45" value="勝利を表示する" style="rounded=0;whiteSpace=wrap;html=1;" vertex="1" parent="1">
          <mxGeometry x="20" y="440" width="120" height="80" as="geometry" />
        </mxCell>
      </root>
    </mxGraphModel>
  </diagram>
</mxfile>
